<mxfile host="app.diagrams.net" modified="2022-09-09T15:54:15.457Z" agent="5.0 (Windows NT 10.0; Win64; x64) AppleWebKit/537.36 (KHTML, like Gecko) Chrome/105.0.0.0 Safari/537.36" etag="RcduxrJGr_Ti9pJIKh4x" version="20.3.0" type="github">
  <diagram id="aiiDbgRZSWBqUHNrifRS" name="第 1 页">
    <mxGraphModel dx="1338" dy="834" grid="1" gridSize="10" guides="1" tooltips="1" connect="1" arrows="1" fold="1" page="1" pageScale="1" pageWidth="1200" pageHeight="1920" math="0" shadow="0">
      <root>
        <mxCell id="0" />
        <mxCell id="1" parent="0" />
        <mxCell id="WuYiRlA6hki28xHHOQbL-19" style="edgeStyle=orthogonalEdgeStyle;rounded=0;orthogonalLoop=1;jettySize=auto;html=1;entryX=0;entryY=0.5;entryDx=0;entryDy=0;startArrow=classic;startFill=1;" edge="1" parent="1" source="WuYiRlA6hki28xHHOQbL-1" target="WuYiRlA6hki28xHHOQbL-4">
          <mxGeometry relative="1" as="geometry" />
        </mxCell>
        <mxCell id="WuYiRlA6hki28xHHOQbL-20" style="edgeStyle=orthogonalEdgeStyle;rounded=0;orthogonalLoop=1;jettySize=auto;html=1;entryX=0;entryY=0.5;entryDx=0;entryDy=0;startArrow=classic;startFill=1;" edge="1" parent="1" source="WuYiRlA6hki28xHHOQbL-1" target="WuYiRlA6hki28xHHOQbL-3">
          <mxGeometry relative="1" as="geometry" />
        </mxCell>
        <mxCell id="WuYiRlA6hki28xHHOQbL-1" value="Ngnix" style="rounded=1;whiteSpace=wrap;html=1;fillColor=#f5f5f5;fontColor=#333333;strokeColor=#666666;" vertex="1" parent="1">
          <mxGeometry x="100" y="230" width="120" height="60" as="geometry" />
        </mxCell>
        <mxCell id="WuYiRlA6hki28xHHOQbL-21" style="edgeStyle=orthogonalEdgeStyle;rounded=0;orthogonalLoop=1;jettySize=auto;html=1;startArrow=classic;startFill=1;" edge="1" parent="1" source="WuYiRlA6hki28xHHOQbL-2" target="WuYiRlA6hki28xHHOQbL-7">
          <mxGeometry relative="1" as="geometry" />
        </mxCell>
        <mxCell id="WuYiRlA6hki28xHHOQbL-2" value="Web Server" style="rounded=1;whiteSpace=wrap;html=1;fillColor=#fff2cc;strokeColor=#d6b656;" vertex="1" parent="1">
          <mxGeometry x="294" y="230" width="120" height="60" as="geometry" />
        </mxCell>
        <mxCell id="WuYiRlA6hki28xHHOQbL-23" style="edgeStyle=orthogonalEdgeStyle;rounded=0;orthogonalLoop=1;jettySize=auto;html=1;entryX=0;entryY=0.5;entryDx=0;entryDy=0;startArrow=classic;startFill=1;" edge="1" parent="1" source="WuYiRlA6hki28xHHOQbL-3" target="WuYiRlA6hki28xHHOQbL-7">
          <mxGeometry relative="1" as="geometry" />
        </mxCell>
        <mxCell id="WuYiRlA6hki28xHHOQbL-3" value="Web Server" style="rounded=1;whiteSpace=wrap;html=1;fillColor=#fff2cc;strokeColor=#d6b656;" vertex="1" parent="1">
          <mxGeometry x="294" y="320" width="120" height="60" as="geometry" />
        </mxCell>
        <mxCell id="WuYiRlA6hki28xHHOQbL-22" style="edgeStyle=orthogonalEdgeStyle;rounded=0;orthogonalLoop=1;jettySize=auto;html=1;entryX=0;entryY=0.5;entryDx=0;entryDy=0;startArrow=classic;startFill=1;" edge="1" parent="1" source="WuYiRlA6hki28xHHOQbL-4" target="WuYiRlA6hki28xHHOQbL-7">
          <mxGeometry relative="1" as="geometry" />
        </mxCell>
        <mxCell id="WuYiRlA6hki28xHHOQbL-4" value="Web Server" style="rounded=1;whiteSpace=wrap;html=1;fillColor=#fff2cc;strokeColor=#d6b656;" vertex="1" parent="1">
          <mxGeometry x="294" y="130" width="120" height="60" as="geometry" />
        </mxCell>
        <mxCell id="WuYiRlA6hki28xHHOQbL-26" style="edgeStyle=orthogonalEdgeStyle;rounded=0;orthogonalLoop=1;jettySize=auto;html=1;entryX=0;entryY=0.5;entryDx=0;entryDy=0;startArrow=classic;startFill=1;" edge="1" parent="1" source="WuYiRlA6hki28xHHOQbL-5" target="WuYiRlA6hki28xHHOQbL-8">
          <mxGeometry relative="1" as="geometry" />
        </mxCell>
        <mxCell id="WuYiRlA6hki28xHHOQbL-27" style="edgeStyle=orthogonalEdgeStyle;rounded=0;orthogonalLoop=1;jettySize=auto;html=1;entryX=0;entryY=0.5;entryDx=0;entryDy=0;startArrow=classic;startFill=1;" edge="1" parent="1" source="WuYiRlA6hki28xHHOQbL-5" target="WuYiRlA6hki28xHHOQbL-10">
          <mxGeometry relative="1" as="geometry" />
        </mxCell>
        <mxCell id="WuYiRlA6hki28xHHOQbL-5" value="api-gateway" style="rounded=1;whiteSpace=wrap;html=1;fillColor=#dae8fc;strokeColor=#6c8ebf;" vertex="1" parent="1">
          <mxGeometry x="630" y="170" width="120" height="60" as="geometry" />
        </mxCell>
        <mxCell id="WuYiRlA6hki28xHHOQbL-28" style="edgeStyle=orthogonalEdgeStyle;rounded=0;orthogonalLoop=1;jettySize=auto;html=1;entryX=0;entryY=0.5;entryDx=0;entryDy=0;startArrow=classic;startFill=1;" edge="1" parent="1" source="WuYiRlA6hki28xHHOQbL-6" target="WuYiRlA6hki28xHHOQbL-11">
          <mxGeometry relative="1" as="geometry" />
        </mxCell>
        <mxCell id="WuYiRlA6hki28xHHOQbL-29" value="" style="edgeStyle=orthogonalEdgeStyle;rounded=0;orthogonalLoop=1;jettySize=auto;html=1;startArrow=classic;startFill=1;" edge="1" parent="1" source="WuYiRlA6hki28xHHOQbL-6" target="WuYiRlA6hki28xHHOQbL-11">
          <mxGeometry relative="1" as="geometry" />
        </mxCell>
        <mxCell id="WuYiRlA6hki28xHHOQbL-30" value="" style="edgeStyle=orthogonalEdgeStyle;rounded=0;orthogonalLoop=1;jettySize=auto;html=1;startArrow=classic;startFill=1;" edge="1" parent="1" source="WuYiRlA6hki28xHHOQbL-6" target="WuYiRlA6hki28xHHOQbL-11">
          <mxGeometry relative="1" as="geometry" />
        </mxCell>
        <mxCell id="WuYiRlA6hki28xHHOQbL-31" style="edgeStyle=orthogonalEdgeStyle;rounded=0;orthogonalLoop=1;jettySize=auto;html=1;entryX=0;entryY=0.5;entryDx=0;entryDy=0;startArrow=classic;startFill=1;" edge="1" parent="1" source="WuYiRlA6hki28xHHOQbL-6" target="WuYiRlA6hki28xHHOQbL-12">
          <mxGeometry relative="1" as="geometry" />
        </mxCell>
        <mxCell id="WuYiRlA6hki28xHHOQbL-6" value="api-gateway" style="rounded=1;whiteSpace=wrap;html=1;fillColor=#dae8fc;strokeColor=#6c8ebf;" vertex="1" parent="1">
          <mxGeometry x="630" y="280" width="120" height="60" as="geometry" />
        </mxCell>
        <mxCell id="WuYiRlA6hki28xHHOQbL-24" style="edgeStyle=orthogonalEdgeStyle;rounded=0;orthogonalLoop=1;jettySize=auto;html=1;entryX=0;entryY=0.5;entryDx=0;entryDy=0;startArrow=classic;startFill=1;" edge="1" parent="1" source="WuYiRlA6hki28xHHOQbL-7" target="WuYiRlA6hki28xHHOQbL-5">
          <mxGeometry relative="1" as="geometry" />
        </mxCell>
        <mxCell id="WuYiRlA6hki28xHHOQbL-25" style="edgeStyle=orthogonalEdgeStyle;rounded=0;orthogonalLoop=1;jettySize=auto;html=1;entryX=0;entryY=0.5;entryDx=0;entryDy=0;startArrow=classic;startFill=1;" edge="1" parent="1" source="WuYiRlA6hki28xHHOQbL-7" target="WuYiRlA6hki28xHHOQbL-6">
          <mxGeometry relative="1" as="geometry" />
        </mxCell>
        <mxCell id="WuYiRlA6hki28xHHOQbL-7" value="Ngnix" style="rounded=1;whiteSpace=wrap;html=1;fillColor=#f5f5f5;fontColor=#333333;strokeColor=#666666;" vertex="1" parent="1">
          <mxGeometry x="460" y="230" width="120" height="60" as="geometry" />
        </mxCell>
        <mxCell id="WuYiRlA6hki28xHHOQbL-15" style="edgeStyle=orthogonalEdgeStyle;rounded=0;orthogonalLoop=1;jettySize=auto;html=1;entryX=0;entryY=0.5;entryDx=0;entryDy=0;" edge="1" parent="1" source="WuYiRlA6hki28xHHOQbL-8" target="WuYiRlA6hki28xHHOQbL-13">
          <mxGeometry relative="1" as="geometry" />
        </mxCell>
        <mxCell id="WuYiRlA6hki28xHHOQbL-8" value="User service 1" style="rounded=1;whiteSpace=wrap;html=1;fillColor=#f8cecc;strokeColor=#b85450;" vertex="1" parent="1">
          <mxGeometry x="800" y="50" width="120" height="60" as="geometry" />
        </mxCell>
        <mxCell id="WuYiRlA6hki28xHHOQbL-16" style="edgeStyle=orthogonalEdgeStyle;rounded=0;orthogonalLoop=1;jettySize=auto;html=1;entryX=0;entryY=0.5;entryDx=0;entryDy=0;" edge="1" parent="1" source="WuYiRlA6hki28xHHOQbL-10" target="WuYiRlA6hki28xHHOQbL-13">
          <mxGeometry relative="1" as="geometry" />
        </mxCell>
        <mxCell id="WuYiRlA6hki28xHHOQbL-10" value="User service 2" style="rounded=1;whiteSpace=wrap;html=1;fillColor=#f8cecc;strokeColor=#b85450;" vertex="1" parent="1">
          <mxGeometry x="800" y="150" width="120" height="60" as="geometry" />
        </mxCell>
        <mxCell id="WuYiRlA6hki28xHHOQbL-17" style="edgeStyle=orthogonalEdgeStyle;rounded=0;orthogonalLoop=1;jettySize=auto;html=1;entryX=0;entryY=0.5;entryDx=0;entryDy=0;" edge="1" parent="1" source="WuYiRlA6hki28xHHOQbL-11" target="WuYiRlA6hki28xHHOQbL-14">
          <mxGeometry relative="1" as="geometry" />
        </mxCell>
        <mxCell id="WuYiRlA6hki28xHHOQbL-11" value="Order service 1" style="rounded=1;whiteSpace=wrap;html=1;fillColor=#d5e8d4;strokeColor=#82b366;" vertex="1" parent="1">
          <mxGeometry x="800" y="260" width="120" height="60" as="geometry" />
        </mxCell>
        <mxCell id="WuYiRlA6hki28xHHOQbL-18" style="edgeStyle=orthogonalEdgeStyle;rounded=0;orthogonalLoop=1;jettySize=auto;html=1;entryX=0;entryY=0.5;entryDx=0;entryDy=0;" edge="1" parent="1" source="WuYiRlA6hki28xHHOQbL-12" target="WuYiRlA6hki28xHHOQbL-14">
          <mxGeometry relative="1" as="geometry" />
        </mxCell>
        <mxCell id="WuYiRlA6hki28xHHOQbL-12" value="Order service 2" style="rounded=1;whiteSpace=wrap;html=1;fillColor=#d5e8d4;strokeColor=#82b366;" vertex="1" parent="1">
          <mxGeometry x="800" y="370" width="120" height="60" as="geometry" />
        </mxCell>
        <mxCell id="WuYiRlA6hki28xHHOQbL-13" value="db" style="rounded=1;whiteSpace=wrap;html=1;fillColor=#e1d5e7;strokeColor=#9673a6;" vertex="1" parent="1">
          <mxGeometry x="1010" y="90" width="120" height="60" as="geometry" />
        </mxCell>
        <mxCell id="WuYiRlA6hki28xHHOQbL-14" value="db" style="rounded=1;whiteSpace=wrap;html=1;fillColor=#e1d5e7;strokeColor=#9673a6;" vertex="1" parent="1">
          <mxGeometry x="1010" y="300" width="120" height="60" as="geometry" />
        </mxCell>
      </root>
    </mxGraphModel>
  </diagram>
</mxfile>
